<svg width="48" height="48" viewBox="0 0 48 48" fill="none" xmlns="http://www.w3.org/2000/svg">
<g clip-path="url(#clip0_16340_238835)">
<path opacity="0.2" d="M47.75 24C47.75 37.1168 37.1168 47.75 24 47.75C10.8832 47.75 0.25 37.1168 0.25 24C0.25 10.8832 10.8832 0.25 24 0.25C37.1168 0.25 47.75 10.8832 47.75 24Z" stroke="#00B9C2" stroke-width="0.5"/>
<path opacity="0.3" d="M42.9547 23.993C42.9547 34.4588 34.4705 42.943 24.0047 42.943C13.5389 42.943 5.05469 34.4588 5.05469 23.993C5.05469 13.5272 13.5389 5.04297 24.0047 5.04297C34.4705 5.04297 42.9547 13.5272 42.9547 23.993Z" stroke="#00B9C2" stroke-width="0.5"/>
<path d="M38.1457 23.982C38.1457 31.7969 31.8105 38.132 23.9957 38.132C16.1809 38.132 9.8457 31.7969 9.8457 23.982C9.8457 16.1672 16.1809 9.83203 23.9957 9.83203C31.8105 9.83203 38.1457 16.1672 38.1457 23.982Z" stroke="#00B9C2" stroke-width="0.5"/>
<path d="M33.3504 23.975C33.3504 29.1389 29.1643 33.325 24.0004 33.325C18.8365 33.325 14.6504 29.1389 14.6504 23.975C14.6504 18.8111 18.8365 14.625 24.0004 14.625C29.1643 14.625 33.3504 18.8111 33.3504 23.975Z" stroke="#00B9C2" stroke-width="0.5"/>
</g>
<defs>
<clipPath id="clip0_16340_238835">
<rect width="48" height="48" fill="white"/>
</clipPath>
</defs>
</svg>
