<svg width="190" height="56" viewBox="0 0 190 56" fill="none" xmlns="http://www.w3.org/2000/svg">
<g clip-path="url(#clip0_18111_224234)">
<path fill-rule="evenodd" clip-rule="evenodd" d="M64.5935 35.3012C64.4017 35.1336 64.1619 34.942 64.4496 34.4871C64.5695 34.3434 64.6894 34.1758 64.8093 34.0321C65.0492 33.7208 65.3129 33.5292 65.6487 33.8166C65.8165 33.9603 67.5671 35.6365 69.7014 35.6365C71.6438 35.6365 72.9148 34.4152 72.9148 33.0024C72.9148 31.3502 71.476 30.3684 68.7182 29.2191C66.0803 28.0697 64.4976 26.9921 64.4976 24.2624C64.4976 22.6341 65.7926 20.0001 69.6055 20.0001C71.9556 20.0001 73.7062 21.2213 73.7062 21.2213C73.8501 21.2931 74.1378 21.5805 73.8501 22.0354C73.7541 22.1791 73.6582 22.3467 73.5623 22.4904C73.3465 22.8256 73.1067 22.9214 72.723 22.7059C72.5551 22.6101 71.0443 21.6044 69.5815 21.6044C67.0395 21.6044 66.2722 23.2327 66.2722 24.2384C66.2722 25.8428 67.4952 26.7766 69.5096 27.6147C72.747 28.9317 74.8333 30.1529 74.8333 32.9306C74.8333 35.4209 72.4592 37.2408 69.6534 37.2408C66.8237 37.2408 64.9053 35.5886 64.5935 35.3012ZM78.2949 36.5463V20.431C78.2949 20.1916 78.5116 20 78.7524 20H79.3543L90.2125 33.4574H90.2606V20.6944C90.2606 20.455 90.4532 20.2395 90.7181 20.2395H91.5607C91.8015 20.2395 92.0182 20.455 92.0182 20.6944V36.8097C92.0182 37.0492 91.8015 37.2407 91.5607 37.2407H91.1273L80.0765 23.52H80.0525V36.5463C80.0525 36.7858 79.8598 37.0013 79.595 37.0013H78.7524C78.5116 37.0013 78.2949 36.7858 78.2949 36.5463ZM95.4824 28.6443C95.4824 23.8552 99.3113 20 104.128 20C108.944 20 112.797 23.8552 112.797 28.6443C112.797 33.4334 108.944 37.2407 104.128 37.2407C99.3113 37.2407 95.4824 33.4334 95.4824 28.6443ZM97.2773 28.5802C97.2773 32.3612 100.387 35.4527 104.191 35.4527C107.995 35.4527 111.129 32.3612 111.129 28.5802C111.129 24.7991 107.995 21.6601 104.191 21.6601C100.387 21.6601 97.2773 24.7991 97.2773 28.5802ZM119.399 36.9055L114.872 20.8141C114.777 20.4789 114.968 20.2395 115.303 20.2395H116.309C116.501 20.2395 116.692 20.4071 116.74 20.5747L120.069 32.9784H120.165L124.165 20.2634C124.213 20.1197 124.356 20 124.572 20H125.003C125.195 20 125.362 20.1197 125.41 20.2634L129.481 32.9784H129.577L132.834 20.5747C132.882 20.4071 133.074 20.2395 133.265 20.2395H134.271C134.607 20.2395 134.798 20.4789 134.702 20.8141L130.176 36.9055C130.128 37.0971 129.937 37.2407 129.745 37.2407H129.362C129.194 37.2407 129.026 37.121 128.955 36.9773L124.811 24.0228H124.692L120.62 36.9773C120.548 37.121 120.381 37.2407 120.213 37.2407H119.83C119.638 37.2407 119.447 37.0971 119.399 36.9055ZM137.934 36.6557V20.7132C137.934 20.4724 138.123 20.2557 138.384 20.2557H143.579C146.473 20.2557 148.442 22.1582 148.442 24.6868C148.442 26.5412 147.232 27.8898 146.117 28.54C147.374 29.0698 148.963 30.2498 148.963 32.4654C148.963 35.1626 146.852 37.1133 143.792 37.1133H138.384C138.123 37.1133 137.934 36.8965 137.934 36.6557ZM139.73 27.7906H143.646C145.495 27.7906 146.528 26.4718 146.528 24.7934C146.528 23.067 145.495 21.916 143.646 21.916H139.73V27.7906ZM139.602 35.4516H143.921C145.654 35.4516 146.912 34.131 146.912 32.4024C146.912 30.6977 145.369 29.4492 143.518 29.4492H139.602V35.4516ZM150.959 36.9853C150.6 36.9853 150.408 36.6743 150.552 36.3633L157.825 20.2632C157.897 20.1196 158.016 20 158.232 20H158.471C158.686 20 158.806 20.1196 158.878 20.2632L166.103 36.3633C166.247 36.6743 166.055 36.9853 165.696 36.9853H164.739C164.524 36.9853 164.38 36.8418 164.333 36.7222L162.562 32.7749H154.069L152.322 36.7222C152.274 36.8418 152.131 36.9853 151.916 36.9853H150.959ZM154.736 31.3664H161.919C160.745 28.7775 159.596 26.1649 158.423 23.5761H158.232L154.736 31.3664ZM168.844 36.6557V20.7132C168.844 20.4724 169.033 20.2557 169.294 20.2557H170.219C170.456 20.2557 170.67 20.4724 170.67 20.7132V35.4998H177.499C177.76 35.4998 177.95 35.7165 177.95 35.9573V36.6557C177.95 36.8965 177.76 37.1133 177.499 37.1133H169.294C169.033 37.1133 168.844 36.8965 168.844 36.6557ZM180.387 36.6557V20.7133C180.387 20.4724 180.576 20.2557 180.837 20.2557H181.762C181.999 20.2557 182.213 20.4724 182.213 20.7133V35.4998H189.042C189.303 35.4998 189.493 35.7165 189.493 35.9574V36.6557C189.493 36.8966 189.303 37.1133 189.042 37.1133H180.837C180.576 37.1133 180.387 36.8966 180.387 36.6557Z" fill="#414A5B"/>
<g clip-path="url(#clip1_18111_224234)">
<path opacity="0.2" fill-rule="evenodd" clip-rule="evenodd" d="M28.3164 56C43.7804 56 56.3164 43.464 56.3164 28C56.3164 12.536 43.7804 0 28.3164 0C12.8524 0 0.316406 12.536 0.316406 28C0.316406 43.464 12.8524 56 28.3164 56Z" fill="url(#paint0_linear_18111_224234)"/>
<path opacity="0.3" fill-rule="evenodd" clip-rule="evenodd" d="M28.316 50.4016C40.6872 50.4016 50.716 40.3727 50.716 28.0016C50.716 15.6304 40.6872 5.60156 28.316 5.60156C15.9448 5.60156 5.91602 15.6304 5.91602 28.0016C5.91602 40.3727 15.9448 50.4016 28.316 50.4016Z" fill="url(#paint1_linear_18111_224234)"/>
<path fill-rule="evenodd" clip-rule="evenodd" d="M28.3156 44.7992C37.594 44.7992 45.1156 37.2776 45.1156 27.9992C45.1156 18.7208 37.594 11.1992 28.3156 11.1992C19.0372 11.1992 11.5156 18.7208 11.5156 27.9992C11.5156 37.2776 19.0372 44.7992 28.3156 44.7992Z" fill="url(#paint2_linear_18111_224234)"/>
<path fill-rule="evenodd" clip-rule="evenodd" d="M28.3172 39.2008C34.5028 39.2008 39.5172 34.1864 39.5172 28.0008C39.5172 21.8152 34.5028 16.8008 28.3172 16.8008C22.1316 16.8008 17.1172 21.8152 17.1172 28.0008C17.1172 34.1864 22.1316 39.2008 28.3172 39.2008Z" fill="white"/>
</g>
</g>
<defs>
<linearGradient id="paint0_linear_18111_224234" x1="0.316406" y1="0" x2="0.316406" y2="56" gradientUnits="userSpaceOnUse">
<stop stop-color="#ACFFD6"/>
<stop offset="1" stop-color="#04D3DD"/>
</linearGradient>
<linearGradient id="paint1_linear_18111_224234" x1="5.91602" y1="5.60156" x2="5.91602" y2="50.4016" gradientUnits="userSpaceOnUse">
<stop stop-color="#ACFFD6"/>
<stop offset="1" stop-color="#04D3DD"/>
</linearGradient>
<linearGradient id="paint2_linear_18111_224234" x1="11.5156" y1="11.1992" x2="11.5156" y2="44.7992" gradientUnits="userSpaceOnUse">
<stop offset="0.00659321" stop-color="#ACFFD6"/>
<stop offset="0.974034" stop-color="#04D3DD"/>
</linearGradient>
<clipPath id="clip0_18111_224234">
<rect width="189.778" height="56" fill="white"/>
</clipPath>
<clipPath id="clip1_18111_224234">
<rect width="56" height="56" fill="white" transform="translate(0.316406)"/>
</clipPath>
</defs>
</svg>
