<svg width="56" height="56" viewBox="0 0 56 56" fill="none" xmlns="http://www.w3.org/2000/svg">
<g clip-path="url(#clip0_18111_224274)">
<path opacity="0.2" fill-rule="evenodd" clip-rule="evenodd" d="M28 56C43.464 56 56 43.464 56 28C56 12.536 43.464 0 28 0C12.536 0 0 12.536 0 28C0 43.464 12.536 56 28 56Z" fill="url(#paint0_linear_18111_224274)"/>
<path opacity="0.3" fill-rule="evenodd" clip-rule="evenodd" d="M27.9996 50.4016C40.3708 50.4016 50.3996 40.3727 50.3996 28.0016C50.3996 15.6304 40.3708 5.60156 27.9996 5.60156C15.6284 5.60156 5.59961 15.6304 5.59961 28.0016C5.59961 40.3727 15.6284 50.4016 27.9996 50.4016Z" fill="url(#paint1_linear_18111_224274)"/>
<path fill-rule="evenodd" clip-rule="evenodd" d="M27.9992 44.7992C37.2776 44.7992 44.7992 37.2776 44.7992 27.9992C44.7992 18.7208 37.2776 11.1992 27.9992 11.1992C18.7208 11.1992 11.1992 18.7208 11.1992 27.9992C11.1992 37.2776 18.7208 44.7992 27.9992 44.7992Z" fill="url(#paint2_linear_18111_224274)"/>
<path fill-rule="evenodd" clip-rule="evenodd" d="M28.0008 39.2008C34.1864 39.2008 39.2008 34.1864 39.2008 28.0008C39.2008 21.8152 34.1864 16.8008 28.0008 16.8008C21.8152 16.8008 16.8008 21.8152 16.8008 28.0008C16.8008 34.1864 21.8152 39.2008 28.0008 39.2008Z" fill="white"/>
</g>
<defs>
<linearGradient id="paint0_linear_18111_224274" x1="0" y1="0" x2="0" y2="56" gradientUnits="userSpaceOnUse">
<stop stop-color="#ACFFD6"/>
<stop offset="1" stop-color="#04D3DD"/>
</linearGradient>
<linearGradient id="paint1_linear_18111_224274" x1="5.59961" y1="5.60156" x2="5.59961" y2="50.4016" gradientUnits="userSpaceOnUse">
<stop stop-color="#ACFFD6"/>
<stop offset="1" stop-color="#04D3DD"/>
</linearGradient>
<linearGradient id="paint2_linear_18111_224274" x1="11.1992" y1="11.1992" x2="11.1992" y2="44.7992" gradientUnits="userSpaceOnUse">
<stop offset="0.00659321" stop-color="#ACFFD6"/>
<stop offset="0.974034" stop-color="#04D3DD"/>
</linearGradient>
<clipPath id="clip0_18111_224274">
<rect width="56" height="56" fill="white"/>
</clipPath>
</defs>
</svg>
